<svg viewBox="0 0 100 100" xmlns="http://www.w3.org/2000/svg">
    <circle cx="50" cy="50" r="40" fill="yellow" />
    <g id="rays">
      <animateTransform attributeName="transform"
          attributeType="XML"
          type="rotate"
          from="0 50 50"
          to="360 50 50"
          dur="3s"
          repeatCount="indefinite" />
      <path d="M 50,50 L 80,20 L 90,5 L 75,0 L 50,-10 L 25,0 L 10,5 L 20,20 Z" fill="yellow" opacity="0.4" />
      <path d="M 50,50 L 85,30 L 95,15 L 80,5 L 50,-5 L 20,5 L 35,15 L 45,30 Z" fill="yellow" opacity="0.6" />
      <path d="M 50,50 L 90,40 L 98,25 L 85,10 L 50,-10 L 15,10 L 23,25 L 30,40 Z" fill="yellow" opacity="0.8" />
      <path d="M 50,50 L 95,50 L 100,35 L 90,20 L 50,5 L 10,20 L 20,35 Z" fill="yellow" />
    </g>
  </svg>
  