<svg xmlns="http://www.w3.org/2000/svg" version="1.1" xmlns:xlink="http://www.w3.org/1999/xlink" xmlns:svgjs="http://svgjs.dev/svgjs" width="1440" height="560" preserveAspectRatio="none" viewBox="0 0 1440 560">
    <g mask="url(&quot;#SvgjsMask1120&quot;)" fill="none">
        <rect width="1440" height="560" x="0" y="0" fill="#0e2a47"></rect>
        <path d="M814.33 156.76 a41.13 41.13 0 1 0 82.26 0 a41.13 41.13 0 1 0 -82.26 0z" fill="#d3b714"></path>
        <path d="M309.66 415.76 a17.91 17.91 0 1 0 35.82 0 a17.91 17.91 0 1 0 -35.82 0z" fill="#e73635"></path>
        <path d="M736.32 137.05 a9.6 9.6 0 1 0 19.2 0 a9.6 9.6 0 1 0 -19.2 0z" fill="#d3b714"></path>
        <path d="M1208.68 42.05 a44.36 44.36 0 1 0 88.72 0 a44.36 44.36 0 1 0 -88.72 0z" stroke="rgba(90, 72, 66, 1)"></path>
        <path d="M1324.12 256.01 a11.55 11.55 0 1 0 23.1 0 a11.55 11.55 0 1 0 -23.1 0z" fill="#e73635"></path>
        <path d="M1140.09 322.1L1179.26 322.1L1179.26 341.21L1140.09 341.21z" stroke="rgba(90, 72, 66, 1)"></path>
        <path d="M925.68 449.56L944.63 449.56L944.63 479.11L925.68 479.11z" fill="#d3b714"></path>
        <path d="M1208.34 201.03a38.05 38.05 0 1 0 48.18-58.91z" stroke="#d3b714"></path>
        <path d="M562.01 117.96L608.03 117.96L608.03 163.98L562.01 163.98z" fill="rgba(90, 72, 66, 1)"></path>
        <path d="M368.13 286.58a16.81 16.81 0 1 0 30.9 13.25z" stroke="#d3b714"></path>
        <path d="M1053.56 120.67a33.59 33.59 0 1 0 59.09 31.96z" stroke="#d3b714"></path>
        <path d="M736.49 405.07a8.31 8.31 0 1 0-16.24 3.56z" fill="rgba(90, 72, 66, 1)"></path>
        <path d="M304.28 440.5L360.04 440.5L360.04 449.36L304.28 449.36z" stroke="#e73635"></path>
        <path d="M482.36 137.8L498.68 137.8L498.68 186.32L482.36 186.32z" fill="rgba(90, 72, 66, 1)"></path>
        <path d="M213.84 149.44L240.18 149.44L240.18 193.75L213.84 193.75z" fill="rgba(90, 72, 66, 1)"></path>
        <path d="M1167.37 320.08a18.71 18.71 0 1 0 35.81 10.85z" fill="#e73635"></path>
        <path d="M317.99 304.08L331.83 304.08L331.83 359.46L317.99 359.46z" stroke="rgba(90, 72, 66, 1)"></path>
        <path d="M553.09 334.5a45.16 45.16 0 1 0 61.66-66z" stroke="#d3b714"></path>
        <path d="M367.46 481.27a5.17 5.17 0 1 0-2.57 10.02z" stroke="#d3b714"></path>
        <path d="M65.29 246.05L88.57 246.05L88.57 269.33L65.29 269.33z" stroke="#d3b714"></path>
        <path d="M1342.82 359.9 a46.3 46.3 0 1 0 92.6 0 a46.3 46.3 0 1 0 -92.6 0z" fill="rgba(90, 72, 66, 1)"></path>
        <path d="M1033.24 402.74L1079.14 402.74L1079.14 448.64L1033.24 448.64z" stroke="#e73635"></path>
        <path d="M341.94 50.18L383.22 50.18L383.22 98.58L341.94 98.58z" stroke="rgba(90, 72, 66, 1)"></path>
        <path d="M553.35 311.16L594.12 311.16L594.12 351.93L553.35 351.93z" stroke="#d3b714"></path>
        <path d="M1267.96 247.51a51.99 51.99 0 1 0-85.44 59.26z" stroke="rgba(90, 72, 66, 1)"></path>
        <path d="M649.81 552.04L702.93 552.04L702.93 604.96L649.81 604.96z" fill="rgba(90, 72, 66, 1)"></path>
        <path d="M603.85 422.3L641.58 422.3L641.58 473.59L603.85 473.59z" fill="#d3b714"></path>
        <path d="M184.92 446.84L232.41 446.84L232.41 467.03L184.92 467.03z" fill="#e73635"></path>
        <path d="M274.01 20.24L284.69 20.24L284.69 30.92L274.01 30.92z" fill="#e73635"></path>
        <path d="M259.76 214.66L292.17 214.66L292.17 247.07L259.76 247.07z" stroke="#e73635"></path>
        <path d="M596.54 377.38a32.25 32.25 0 1 0-58.49 27.18z" stroke="#e73635"></path>
        <path d="M345.72 211.55 a2.37 2.37 0 1 0 4.74 0 a2.37 2.37 0 1 0 -4.74 0z" stroke="#d3b714"></path>
        <path d="M244.86 517.32L282.19 517.32L282.19 554.65L244.86 554.65z" fill="#d3b714"></path>
    </g>
    <defs>
        <mask id="SvgjsMask1120">
            <rect width="1440" height="560" fill="#ffffff"></rect>
        </mask>
    </defs>
    <!-- https://bgjar.com/ -->
</svg>