<!-- Mushrooms SVG Vector
Description: Free Download Mushrooms 14 SVG vector file in monocolor and multicolor type for Sketch
and Figma from Mushrooms 14
Collection: Pizza Ingredient Vectors
License: CC Attribution License
Author: Vera Ae
Source: https://www.svgrepo.com/svg/417230/mushrooms -->


<svg xmlns="http://www.w3.org/2000/svg">
    <defs>
        <symbol id="mushroom-icon" viewBox="20 -60 32 320">
            <title>Mushrooms</title>
            <style>
                .cls-1 { fill: #ddd4d1; }
                .cls-2 { fill: #cdbfbb; }
                .cls-3 { fill: #bcaaa4; }
            </style>
            <path fill="#ddd4d1" d="M15,2h2A13,13,0,0,1,30,15v1a3,3,0,0,1-3,3H5a3,3,0,0,1-3-3V15A13,13,0,0,1,15,2Z" />
            <path fill="#cdbfbb" d="M15,2h2A13,13,0,0,1,30,15v1a3,3,0,0,1-3,3H5a3,3,0,0,1-3-3V15A13,13,0,0,1,15,2Z" />
            <path fill="#ddd4d1" d="M17,4H15A11,11,0,0,0,4,15v1a1,1,0,0,0,1,1h6.72V28a2,2,0,0,0,2,2h4.55a2,2,0,0,0,2-2V17H27a1,1,0,0,0,1-1V15A11,11,0,0,0,17,4Z" />
            <path fill="#bcaaa4" d="M22.28,12.83h.28a2,2,0,0,1,2,2v0A2.17,2.17,0,0,1,22.38,17h-2.1a0,0,0,0,1,0,0V14.83A2,2,0,0,1,22.28,12.83Z" />
            <path fill="#bcaaa4" d="M9.45,12.83h.28a2,2,0,0,1,2,2V17a0,0,0,0,1,0,0H9.62a2.17,2.17,0,0,1-2.17-2.17v0A2,2,0,0,1,9.45,12.83Z" />
        </symbol>
    </defs>
</svg>
