<!-- Pepperoni SVG Vector
Description: Free Download Pepperoni 14 SVG vector file in monocolor and multicolor type for Sketch
and Figma from Pepperoni 14
Collection: Pizza Ingredient Vectors
License: CC Attribution License
Author: Vera Ae
Source: https://www.svgrepo.com/svg/417228/pepperoni -->

<svg>
    <defs>
        <symbol id="peperoni-icon" viewBox="0 0 320 32" xmlns="http://www.w3.org/2000/svg"
            >

            <g id="SVGRepo_bgCarrier" stroke-width="0"></g>
            <g id="SVGRepo_tracerCarrier" stroke-linecap="round" stroke-linejoin="round"></g>
            <g id="SVGRepo_iconCarrier">
                <defs>
                    <style>.cls-1{fill:#be3333;}.cls-2{fill:#e1a0a0;}</style>
                </defs>
                <title>Pepperoni</title>
                <circle class="cls-1" cx="16" cy="16" r="14"></circle>
                <path class="cls-2"
                    d="M12,10.14a1,1,0,0,1-.71-1.71l1.14-1.14a1,1,0,0,1,1.41,1.41L12.71,9.85A1,1,0,0,1,12,10.14Z"></path>
                <path class="cls-2"
                    d="M7.43,17.57a1,1,0,0,1-.71-1.71l1.14-1.14a1,1,0,1,1,1.41,1.41L8.14,17.28A1,1,0,0,1,7.43,17.57Z"></path>
                <path class="cls-2"
                    d="M15.43,17.57a1,1,0,0,1-.71-1.71l1.14-1.14a1,1,0,1,1,1.41,1.41l-1.14,1.14A1,1,0,0,1,15.43,17.57Z"></path>
                <path class="cls-2"
                    d="M23.43,17.57a1,1,0,0,1-.71-1.71l1.14-1.14a1,1,0,1,1,1.41,1.41l-1.14,1.14A1,1,0,0,1,23.43,17.57Z"></path>
                <path class="cls-2"
                    d="M20,10.14a1,1,0,0,1-.71-1.71l1.14-1.14a1,1,0,0,1,1.41,1.41L20.71,9.85A1,1,0,0,1,20,10.14Z"></path>
                <path class="cls-2"
                    d="M12,25a1,1,0,0,1-.71-1.71l1.14-1.14a1,1,0,0,1,1.41,1.41l-1.14,1.14A1,1,0,0,1,12,25Z"></path>
                <path class="cls-2"
                    d="M20,25a1,1,0,0,1-.71-1.71l1.14-1.14a1,1,0,0,1,1.41,1.41l-1.14,1.14A1,1,0,0,1,20,25Z"></path>
            </g>
        </symbol>
    </defs>
</svg>